<?xml version="1.0" standalone="no"?>
<!DOCTYPE svg PUBLIC "-//W3C//DTD SVG 20010904//EN"
 "http://www.w3.org/TR/2001/REC-SVG-20010904/DTD/svg10.dtd">
<svg version="1.0" xmlns="http://www.w3.org/2000/svg"
 width="256.000000pt" height="256.000000pt" viewBox="0 0 256.000000 256.000000"
 preserveAspectRatio="xMidYMid meet">
<metadata>
Created by potrace 1.11, written by Peter Selinger 2001-2013
</metadata>
<g transform="translate(0.000000,256.000000) scale(0.100000,-0.100000)"
fill="#000000" stroke="none">
<path d="M1035 2348 c-38 -3 -90 -13 -114 -22 -35 -13 -88 -16 -272 -16 l-229
0 0 -825 0 -825 274 0 273 0 -1 377 c-1 300 2 379 12 390 19 18 153 17 227 -2
251 -66 393 -327 341 -626 -58 -326 -366 -485 -696 -360 l-51 19 -40 -80 c-48
-95 -49 -91 60 -137 185 -78 409 -107 612 -79 345 47 594 235 696 524 26 73
27 90 27 234 0 141 -2 162 -26 227 -77 215 -229 373 -444 463 -122 51 -244 72
-419 74 -161 1 -181 6 -228 60 -98 110 -81 314 32 414 66 57 200 69 287 24
l40 -20 14 21 c7 12 19 31 27 43 13 20 10 23 -44 51 -118 62 -226 84 -358 71z"/>
</g>
</svg>
